<svg width="15" height="9" viewBox="0 0 15 9" fill="none" xmlns="http://www.w3.org/2000/svg">
<path d="M14.4132 1.6633L8.16325 7.9133C8.07615 8.0007 7.97266 8.07004 7.8587 8.11736C7.74475 8.16468 7.62257 8.18904 7.49918 8.18904C7.3758 8.18904 7.25362 8.16468 7.13967 8.11736C7.02571 8.07004 6.92222 8.0007 6.83512 7.9133L0.585122 1.6633C0.409002 1.48718 0.310059 1.24831 0.310059 0.999234C0.310059 0.750162 0.409002 0.511291 0.585122 0.335171C0.761243 0.159051 1.00011 0.0601076 1.24918 0.0601076C1.49826 0.0601076 1.73713 0.159051 1.91325 0.335171L7.49997 5.92189L13.0867 0.33439C13.2628 0.15827 13.5017 0.0593262 13.7507 0.0593262C13.9998 0.0593262 14.2387 0.15827 14.4148 0.33439C14.5909 0.510511 14.6899 0.749381 14.6899 0.998453C14.6899 1.24752 14.5909 1.4864 14.4148 1.66252L14.4132 1.6633Z" fill="white"/>
</svg>
