<svg width="20" height="18" viewBox="0 0 20 18" fill="none" xmlns="http://www.w3.org/2000/svg">
<path d="M16.6489 8.70156V13.9892C16.6489 14.6946 16.3687 15.371 15.8699 15.8698C15.3711 16.3686 14.6947 16.6488 13.9893 16.6488H6.01045C5.30508 16.6488 4.62859 16.3686 4.12982 15.8698C3.63104 15.371 3.35083 14.6946 3.35083 13.9892V8.70156L8.00516 2.68584H11.9946L16.6489 8.70156Z" fill="#9282FA" fill-opacity="0.4"/>
<path d="M19.2843 9.08554L17.9196 1.77159C17.8863 1.59331 17.8168 1.42374 17.7155 1.2733C17.6142 1.12286 17.4832 0.994725 17.3305 0.896793C17.1779 0.798861 17.0068 0.733193 16.8278 0.703824C16.6488 0.674463 16.4657 0.682011 16.2898 0.726031L16.264 0.733512L11.8989 2.02093H8.10066L3.73556 0.737668L3.70979 0.730187C3.53384 0.686168 3.35075 0.678612 3.17177 0.707981C2.99279 0.737349 2.82171 0.803018 2.66905 0.900949C2.51639 0.998881 2.38538 1.12701 2.28407 1.27745C2.18275 1.42789 2.11329 1.59746 2.07995 1.77575L0.715234 9.08554C0.656876 9.37826 0.700198 9.68221 0.838022 9.94701C0.975853 10.2117 1.19995 10.4216 1.47322 10.5417C1.64823 10.622 1.83838 10.6639 2.03091 10.6647C2.26136 10.6646 2.48755 10.6026 2.68584 10.4852V13.9892C2.68584 14.871 3.03611 15.7165 3.65957 16.34C4.28304 16.9635 5.12864 17.3137 6.01036 17.3137H13.9892C14.871 17.3137 15.7166 16.9635 16.34 16.34C16.9635 15.7165 17.3137 14.871 17.3137 13.9892V10.486C17.5118 10.6032 17.7377 10.6652 17.9678 10.6655C18.1606 10.6649 18.351 10.6233 18.5264 10.5433C18.8 10.4232 19.0243 10.2131 19.1622 9.94792C19.3 9.68279 19.3431 9.37851 19.2843 9.08554ZM2.02094 9.33488L3.38649 2.02093L6.88305 3.04904L2.02094 9.33488ZM13.9892 15.9839H10.6647V14.9292L11.8 13.7947C11.9248 13.67 11.9948 13.5008 11.9948 13.3243C11.9948 13.1478 11.9248 12.9786 11.8 12.8539C11.6753 12.7291 11.5061 12.6591 11.3296 12.6591C11.1531 12.6591 10.9839 12.7291 10.8592 12.8539L9.99979 13.7141L9.14041 12.8539C9.01565 12.7291 8.84643 12.6591 8.66999 12.6591C8.49354 12.6591 8.32432 12.7291 8.19956 12.8539C8.07481 12.9786 8.00467 13.1479 8.00467 13.3243C8.00467 13.5007 8.07481 13.67 8.19956 13.7947L9.33489 14.9292V15.9839H6.01036C5.48133 15.9839 4.97397 15.7737 4.59989 15.3997C4.22581 15.0256 4.01565 14.5182 4.01565 13.9892V8.92846L8.33172 3.35074H11.6679L15.9839 8.92846V13.9892C15.9839 14.5182 15.7737 15.0256 15.3996 15.3997C15.0256 15.7737 14.5182 15.9839 13.9892 15.9839ZM17.9786 9.33488L13.1165 3.04904L16.6131 2.02093L17.9786 9.33488ZM8.00508 10.3322C8.00508 10.5295 7.94657 10.7223 7.83703 10.8863C7.7274 11.0503 7.57163 11.1782 7.38939 11.2537C7.20715 11.3292 7.00661 11.3489 6.81314 11.3104C6.61968 11.2719 6.44197 11.1769 6.30248 11.0374C6.163 10.898 6.06801 10.7203 6.02953 10.5268C5.99104 10.3333 6.01079 10.1328 6.08628 9.95057C6.16177 9.76831 6.2896 9.61256 6.45362 9.50293C6.61764 9.39339 6.81046 9.33488 7.00772 9.33488C7.27223 9.33488 7.52592 9.43994 7.71294 9.62702C7.90002 9.81403 8.00508 10.0677 8.00508 10.3322ZM13.9892 10.3322C13.9892 10.5295 13.9307 10.7223 13.8212 10.8863C13.7115 11.0503 13.5558 11.1782 13.3735 11.2537C13.1913 11.3292 12.9908 11.3489 12.7973 11.3104C12.6038 11.2719 12.4261 11.1769 12.2867 11.0374C12.1471 10.898 12.0522 10.7203 12.0136 10.5268C11.9751 10.3333 11.9949 10.1328 12.0704 9.95057C12.1459 9.76831 12.2738 9.61256 12.4378 9.50293C12.6017 9.39339 12.7946 9.33488 12.9919 9.33488C13.2564 9.33488 13.5101 9.43994 13.6971 9.62702C13.8842 9.81403 13.9892 10.0677 13.9892 10.3322Z" fill="#9282FA"/>
</svg>
